<?xml version="1.0" standalone="no"?>
<!DOCTYPE svg PUBLIC "-//W3C//DTD SVG 20010904//EN"
 "http://www.w3.org/TR/2001/REC-SVG-20010904/DTD/svg10.dtd">
<svg version="1.0" xmlns="http://www.w3.org/2000/svg"
 width="256.000000pt" height="256.000000pt" viewBox="0 0 256.000000 256.000000"
 preserveAspectRatio="xMidYMid meet">

<g transform="translate(0.000000,256.000000) scale(0.100000,-0.100000)"
fill="#000000" stroke="none">
<path d="M1367 2446 c-14 -13 -33 -38 -43 -57 l-17 -34 -14 33 c-15 36 -20 38
-50 17 -14 -10 -24 -11 -28 -5 -3 5 -15 15 -26 20 -18 10 -19 8 -13 -29 8 -50
-2 -95 -20 -88 -11 4 -12 -3 -4 -35 11 -52 4 -75 -39 -120 -21 -21 -33 -43
-30 -51 3 -9 -7 -27 -24 -43 -16 -15 -31 -42 -35 -59 -4 -23 -14 -34 -35 -42
-32 -12 -50 -48 -52 -102 -1 -25 6 -40 26 -57 l27 -23 -15 -116 c-8 -64 -18
-167 -21 -230 -7 -112 -8 -115 -31 -115 -34 0 -66 -36 -61 -70 3 -23 -1 -31
-21 -40 -74 -33 -265 -155 -314 -200 -150 -137 -257 -347 -257 -505 0 -212
127 -309 450 -346 120 -13 416 -7 525 11 192 32 290 54 399 91 318 106 570
286 662 473 37 76 39 85 39 176 0 92 -2 100 -39 176 -58 117 -169 225 -296
288 -55 27 -127 53 -170 62 -41 8 -76 17 -78 18 -1 2 5 44 14 94 15 85 18 91
46 101 29 10 64 71 55 95 -3 7 8 18 25 25 16 7 39 28 51 47 15 24 36 39 69 50
27 8 55 25 63 37 13 18 13 23 -1 38 -9 10 -13 23 -9 28 4 7 -3 11 -17 11 -13
0 -29 5 -36 12 -15 15 -16 45 -1 50 9 3 8 15 -2 43 -7 22 -12 47 -10 55 2 12
0 13 -10 3 -18 -18 -32 -16 -25 2 3 9 0 15 -8 15 -9 0 -12 7 -9 21 5 18 3 20
-15 15 -28 -9 -62 10 -62 33 0 20 -39 51 -65 51 -9 0 -13 4 -10 10 3 5 1 19
-5 31 -9 15 -18 19 -35 15 -13 -3 -36 -1 -52 5 l-28 12 25 7 c23 7 22 8 -9 9
-29 1 -32 3 -21 16 16 19 11 19 -29 -1 -31 -16 -33 -15 -47 5 -20 28 -53 27
-94 -4 -22 -17 -36 -21 -41 -14 -9 15 -42 -3 -63 -33 -13 -18 -18 -20 -28 -10
-18 18 -13 95 7 126 21 32 16 33 -18 2z m196 -289 c78 -29 182 -101 231 -161
l36 -43 -24 -55 c-14 -30 -36 -93 -50 -140 -14 -46 -32 -91 -39 -100 -6 -9
-57 -31 -112 -48 -109 -35 -146 -35 -194 0 -34 23 -88 28 -147 13 -58 -14
-108 5 -162 62 l-43 45 6 108 c4 59 11 122 15 141 10 35 83 163 105 181 44 37
272 35 378 -3z m-557 -284 c-3 -42 -8 -79 -11 -82 -3 -3 -14 0 -23 5 -27 17
-28 94 -2 127 36 45 44 35 36 -50z m858 -128 c8 -32 -11 -73 -43 -94 l-24 -15
7 59 c11 88 14 97 36 85 10 -5 21 -21 24 -35z m-406 -249 c1 -2 0 -15 -4 -30
-7 -30 -27 -32 -134 -16 -106 17 -115 24 -90 69 9 18 13 18 117 -1 59 -10 109
-20 111 -22z m-508 -267 c0 -69 -1 -71 -22 -65 -13 3 -26 6 -30 6 -6 0 -28 64
-28 83 0 15 41 47 60 47 18 0 20 -7 20 -71z m821 43 c140 -90 198 -204 134
-267 -30 -31 -34 -31 -76 0 -69 50 -89 57 -120 46 l-30 -10 22 30 c11 17 38
41 60 54 32 21 70 65 55 65 -5 0 -45 -35 -114 -102 -27 -26 -61 -52 -76 -58
-28 -10 -76 -14 -76 -5 0 3 15 26 34 52 18 27 55 87 81 136 26 48 50 87 54 87
4 0 27 -13 52 -28z m-821 -134 c0 -34 32 -215 46 -266 20 -70 72 -182 84 -182
22 0 147 53 194 81 75 46 176 131 221 188 44 54 44 55 63 42 11 -6 7 -21 -18
-72 -46 -92 -70 -120 -163 -192 -89 -69 -318 -230 -321 -225 -1 2 -9 14 -17
28 -20 31 -64 167 -79 240 -6 30 -13 98 -16 150 -2 52 -6 123 -9 158 -2 36 0
62 5 62 6 0 10 -6 10 -12z m-27 -65 c4 -38 7 -98 7 -135 0 -112 55 -339 98
-406 13 -20 12 -34 -8 -128 -12 -58 -20 -108 -17 -110 3 -3 10 21 17 53 29
145 23 136 158 229 l122 84 0 -37 c0 -21 -7 -51 -16 -68 -13 -25 -14 -41 -4
-106 10 -69 9 -79 -11 -123 -28 -64 -19 -69 11 -6 22 48 23 54 12 126 -10 63
-10 80 3 104 8 16 15 38 15 48 0 11 7 23 16 26 12 4 15 14 11 34 -4 24 4 34
76 92 71 57 87 76 131 159 l51 94 60 18 c90 28 107 25 150 -22 84 -94 137
-200 166 -336 7 -36 7 -56 0 -65 -54 -68 -79 -91 -124 -116 -29 -17 -92 -62
-142 -102 -171 -136 -259 -164 -510 -165 -164 0 -172 1 -227 27 -100 47 -148
113 -148 203 1 89 12 123 68 209 57 85 63 106 31 106 -15 0 -20 -6 -19 -22 3
-38 2 -43 -45 -114 -44 -66 -45 -70 -45 -147 l0 -79 -45 86 c-26 49 -56 127
-70 182 -30 113 -49 154 -77 162 -17 4 -19 10 -14 46 4 23 16 56 27 74 22 38
24 46 7 36 -7 -4 -8 -3 -4 5 4 6 11 9 15 6 12 -7 53 40 44 50 -5 4 -2 5 5 1 7
-4 26 2 42 14 43 31 142 80 161 80 13 0 18 -15 22 -67z"/>
<path d="M1216 1958 c-9 -12 -15 -32 -15 -43 1 -20 1 -20 6 0 8 32 34 55 64
55 45 0 63 -27 60 -85 -1 -18 0 -18 9 3 12 28 -2 67 -29 81 -34 19 -78 13 -95
-11z"/>
<path d="M1521 1874 c-12 -15 -21 -34 -21 -43 0 -9 8 0 18 19 14 29 23 36 53
38 41 3 58 -11 69 -61 7 -29 8 -30 9 -6 2 41 -34 79 -74 79 -24 0 -39 -7 -54
-26z"/>
<path d="M1282 1803 c-7 -3 -19 -18 -28 -35 -13 -25 -13 -35 -3 -59 6 -17 21
-35 33 -41 17 -9 16 -6 -7 21 -32 39 -33 50 -6 85 33 42 69 35 120 -21 36 -41
39 -43 23 -14 -34 59 -83 84 -132 64z"/>
<path d="M977 1903 c-9 -9 -9 -53 1 -53 4 0 7 14 8 30 1 32 1 33 -9 23z"/>
<path d="M1836 1713 c-6 -14 -5 -15 5 -6 7 7 10 15 7 18 -3 3 -9 -2 -12 -12z"/>
</g>
</svg>
