<svg xmlns="http://www.w3.org/2000/svg" xmlns:xlink="http://www.w3.org/1999/xlink" viewBox="0 0 185.83 185.83"><defs><style>.cls-1{fill:#ffe0c2;}.cls-2{fill:#fff;}.cls-3{fill:#680000;}.cls-4{fill:#afafaf;}.cls-5{fill:#cc5aa5;}.cls-6{fill:url(#New_Gradient_Swatch_5);}.cls-7{fill:#353535;}.cls-8{clip-path:url(#clip-path);}.cls-9{fill:#e8cbb3;}.cls-10{clip-path:url(#clip-path-2);}.cls-11{fill:#efefef;}.cls-12{fill:#727272;}.cls-13{clip-path:url(#clip-path-3);}.cls-14{clip-path:url(#clip-path-4);}.cls-15{fill:#510000;}.cls-16{clip-path:url(#clip-path-5);}.cls-17{fill:#999;}.cls-18{fill:#939393;}</style><linearGradient id="New_Gradient_Swatch_5" x1="111.42" y1="291.12" x2="111.42" y2="210.53" gradientUnits="userSpaceOnUse"><stop offset="0.14" stop-color="#e5649c"/><stop offset="1" stop-color="#ffaa5c"/></linearGradient><clipPath id="clip-path"><path class="cls-1" d="M111.52,49.15a4.21,4.21,0,0,1,3.6-.58,4.53,4.53,0,0,1,3.2,2.11c1.13,2.06.18,4.8.18,4.82l.74.27c.05-.13,1.08-3.1-.23-5.47a5.3,5.3,0,0,0-3.72-2.51,4.93,4.93,0,0,0-4.24.74c-2.19,1.69-2.35,5.12-2.35,5.27l.79,0S109.63,50.62,111.52,49.15Zm-22-5.79a4.15,4.15,0,0,1,3.59-.59,4.54,4.54,0,0,1,3.2,2.12c1.14,2,.19,4.79.18,4.82l.74.27c0-.13,1.08-3.1-.23-5.47A5.27,5.27,0,0,0,93.24,42a4.93,4.93,0,0,0-4.25.74c-2.18,1.69-2.33,5.12-2.34,5.27l.79,0S87.58,44.83,89.48,43.36Zm.64,17c.31,3,3.57,5,3.71,5.07l.4-.68s-3.06-1.87-3.32-4.46c-.14-1.38.53-2.75,2-4.08A4,4,0,0,1,96.4,55c3.64.7,6.59,6.65,6.62,6.71l.71-.34c-.13-.26-3.16-6.38-7.18-7.15a4.75,4.75,0,0,0-4.18,1.37C90.72,57.12,90,58.71,90.12,60.34Zm3.51,7.3c-9.73,4.09-15.84-6.17-16.36-7.1-.59-2.87.37-12.79.38-12.95-.05-.9-.07-1.44-.08-1.44,0-.17.52-6.33,3.61-10.3a25.7,25.7,0,0,0,2.58-4.06,6.59,6.59,0,0,1,2.95-3.29c2.84-1.56,13.07-2,21-.86,6.84,1,17.48,5.86,25.05,16.53-3.53,7.5-4,9.72-4.07,10.08s-.5,1.48-.89,2.53c-.2.58-.44,1.42-.72,2.41-.71,2.47-1.76,6.19-3,7.3-2.85.82-5.19,1.63-7.26,2.34-7.44,2.56-10.52,3.62-16.86-1.31l-.13-.11-.17,0a9.89,9.89,0,0,1-3.66-.55H95.9A8.61,8.61,0,0,0,93.63,67.64Z"/></clipPath><clipPath id="clip-path-2"><polygon class="cls-2" points="109.64 82.22 88.72 85.4 86.8 72.77 107.5 74.36 109.64 82.22"/></clipPath><clipPath id="clip-path-3"><path class="cls-1" d="M71.39,47.12a3.84,3.84,0,0,0-1.27,3.11,2.42,2.42,0,0,0,1.14,1.65l.39-.68a1.66,1.66,0,0,1-.75-1.11A3.11,3.11,0,0,1,72,47.64ZM69,53.82c-.93-1.88-.62-4.44.91-7.58.07-.1,1.59-2.52,3.63-1.39l.06,0c-.06.78-.1,1.27-.12,1.55a1,1,0,0,0,.16,1Q72.75,52,72,56.35A5.28,5.28,0,0,1,69,53.82Z"/></clipPath><clipPath id="clip-path-4"><path class="cls-3" d="M89.53,73.48l-.15.18a7.8,7.8,0,0,0-1.31,6l.05.25.25.06c2.82.64,9.12,1.7,16.29,2.53l.25,0,.13-.21a25.49,25.49,0,0,0,2.1-4.88l.12-.33-.31-.16c-1.7-.83-6.84-1.69-12.28-2.59l-4.91-.83ZM76.79,46.15s0,.54.07,1.42c0,.42-1,10.28-.35,13.2l0,.11c.07.12,6.77,11.95,17.39,7.48a8.1,8.1,0,0,1,2-.69,11.73,11.73,0,0,0,3.73.57c4.11,3.17,7,3.9,10.38,3.39a43.5,43.5,0,0,0,7.09-2.06c2.09-.71,4.45-1.53,7.3-2.35l.15-.07c1.43-1.2,2.46-4.83,3.28-7.75.28-1,.51-1.8.72-2.35s.43-1.23.61-1.73c.08-.25.16-.46.21-.61l2.18,1.09,0,0a.83.83,0,0,0-.16.12,1.85,1.85,0,0,0-.41,1.37c-1.65,10.54-2.91,17.12-4.12,23.49l-.58,3.08c-4.3,10.57-17.36,42.68-47.86,51-1.66-2.32-16.33-25-4-87.43l0-.19-.12-.15a1.07,1.07,0,0,1-.14-.2h0s0-.41.3-3.61h0c.15-.55.27-1,.38-1.51.8-3.13,1-4.07,4.64-6.16l.56.41C77.25,40.18,76.81,45.85,76.79,46.15Z"/></clipPath><clipPath id="clip-path-5"><path class="cls-4" d="M138.55,123.87c-2.33-4.66-8.74-12-8.81-12l0,0c-.4-.34-.78-.64-1.13-.89-1.75-1.25-3.82-1.21-6.16.09-1.61.89-6.08,1.84-6.67,2a28.51,28.51,0,0,0-2.59,4.71c-1.74,3.52-3.91,7.9-5.73,9.66a147,147,0,0,1-12,9.71,2,2,0,0,1,.85,0,1.67,1.67,0,0,1,1,1.69,1.89,1.89,0,0,1-1.44,1.93l-.16,0-.14-.07-.16-.1a16.31,16.31,0,0,1-1.57,5.62,6.62,6.62,0,0,1-.81,1.09c-.29.32-.29.32,0,2l.12.8c.11.74.23,1.49.35,2.22a37.24,37.24,0,0,1,.76,6.89A11.91,11.91,0,0,1,93,162.32c-.73,1.47-1.63,3.29-1.41,4l-.74.25c-.34-1,.52-2.72,1.44-4.56a11.59,11.59,0,0,0,1.21-2.92,37.31,37.31,0,0,0-.75-6.69c-.12-.74-.24-1.49-.35-2.23l-.12-.8c-.29-1.86-.32-2,.22-2.61a6.24,6.24,0,0,0,.73-1c1-1.56,1.4-4.71,1.52-5.81a1.72,1.72,0,0,1-.57-1.39,1.93,1.93,0,0,1,.26-.73l-1,.73-.65.45c-12.45,8.65-15.65,10.82-16.54,11.38L75.83,152c-.8,3.43-2.46,10.57-2.48,12.72h-.78c0-2.23,1.62-9.16,2.49-12.89.22-.91.4-1.7.44-1.91a8.83,8.83,0,0,0-1.43-3.35c-.6-.59-.95-1.74-1.53-3.64-.44-1.42-1-3.19-1.86-5.45a42.38,42.38,0,0,1-1.55-5.62c-1.28-6-2.16-13.58-1.87-16.53.33-3.46-.62-11.21-.84-12.93-3.62,1.26-24.56,9.2-22.86,23a3.2,3.2,0,0,1,3.16,1.6c2.94,4.51,3.31,9.27,4.64,14.34s4.59,10,7.18,14.68c.14-1.46.18-3.22.21-4.84s.07-3,.18-4c.27-2.67,1.56-4.38,2.92-6.19.28-.38.57-.75.85-1.15a42.43,42.43,0,0,0,3.15-5.89,2,2,0,0,1-.87-1.68,1.81,1.81,0,0,1,.77-1.29,1.72,1.72,0,0,1,1.39-.22,1.55,1.55,0,0,1,1,1.36c0,.1,0,.21,0,.32a1.91,1.91,0,0,1-1.44,1.94l-.16,0,0,0a41.16,41.16,0,0,1-3.18,5.89c-.28.41-.58.79-.86,1.17-1.3,1.73-2.52,3.35-2.78,5.8-.1,1-.13,2.44-.16,3.94a48.4,48.4,0,0,1-.35,6c2.46,4.5,5,8.38,9.81,10.73s10.31,2.87,15.59,2.83c2.13,0,4.27-.06,6.43-.18,9.56-.51,19.22-2.3,27.09-7.93,4.41-3.15,8.38-6.87,12.85-9.93,3.54-2.43,9.08-4.31,10.67-8.6a3.54,3.54,0,0,1,2.38-2.31,23,23,0,0,1-.72-3.18A62.8,62.8,0,0,0,138.55,123.87Z"/></clipPath></defs><g id="Layer_7" data-name="Layer 7"><path class="cls-5" d="M91.29,174.06c-1.36.13-2.66.65-4,.79-10.68,1.1-57.88,4.86-65.85-13.74-9-21,12-46,22.5-52.5s78.5-50.5,115.5-12C196,134.69,136.25,169.61,91.29,174.06Z"/><path class="cls-6" d="M187.1,183.41v0c0,.29,0,.58,0,.87v.25c0,.44,0,.89,0,1.34a.2.2,0,0,1,0,.11s0,.06-.06.06-.06,0-.06-.12a3.15,3.15,0,0,0-.05.43l0,.22,0,.42v.09a.24.24,0,0,1,0,.1v.11l0,.28a.83.83,0,0,1,0,.22,1.55,1.55,0,0,1-.07.31.93.93,0,0,1-.07.2,2.09,2.09,0,0,1-.29.52,3.38,3.38,0,0,1-.37.38,1.81,1.81,0,0,1-.23.18l-.11.08-.08,0,0,0-.08.06-.13.07-.12.06-.11.07-.08,0-.15.07-.15.08-.06,0-.14.07-.22.08-.08,0-.18.07h-.05l-.05,0-.51.14-.14,0h-.08l-.32.06-.36,0h-.86l-.33,0-.38-.07-.09,0-.19,0h-.06l-.08,0-.18,0-.11,0c-.43.6-.86,1.18-1.29,1.75l-.62.84,0,0,0,0h0c-.3.37-.6.78-.91,1.2l-.06.08-.19.25-1.25,1.68c-.32.43-.65.84-1,1.22l-.4.5c-.17.21-.34.39-.52.58l-.07.08-.06.06s-.09.09-.13.15a16.68,16.68,0,0,1-1.28,1.27,11,11,0,0,1-1.17.87,5,5,0,0,1-.92.47l-.25.1c-.18.07-.37.14-.55.19l-.09,0h0c-.5.15-1,.3-1.53.41a15.11,15.11,0,0,1-3,.39l-.5,0a4,4,0,0,1-1.8-.54,4.35,4.35,0,0,1-1.11-.95c-.19-.22-.38-.46-.57-.73l-.39-.55-.1-.15-.17-.25c-.23-.33-.47-.65-.7-1l-.12-.13a4,4,0,0,0-.27-.31,5.69,5.69,0,0,0-1.23-1,4.48,4.48,0,0,0-2.14-.58,3,3,0,0,0-1.42.44,8.62,8.62,0,0,0-1.17,1l-.24.25,0,0-.07.09-.12.12c-.09.1-.16.17-.22.25-.47.57-.93,1.16-1.39,1.76l-.21.27-.07.1-.06.08c-.16.2-.31.4-.47.59s-.11.33-.17.5l-.3.84c-.11.28-.22.55-.34.82s-.21.52-.33.77a6.82,6.82,0,0,1-.35.72,5.89,5.89,0,0,1-.4.61c-.14.19-.29.37-.44.55s-.3.34-.46.5l-.22.22,0,0-.19.16-.06,0,0,0-.15.1-.23.14a3.22,3.22,0,0,1-.5.23,3.74,3.74,0,0,1-1,.22l-.18,0h-.33l-.52,0c-.32,0-.65,0-1,.05a4.35,4.35,0,0,1-.51,0l-.25,0-.25-.05a6.76,6.76,0,0,1-.95-.29,6.2,6.2,0,0,1-1-.43l-.13-.07a6,6,0,0,0-1.83-.72,5.69,5.69,0,0,0-1-.12H137a3.08,3.08,0,0,0-.72.07,14.65,14.65,0,0,0-1.87.61l-.34.15-.49.25-.27.17-.17.11-.07,0-.38.28,0,0-.07,0-.12.09a3.81,3.81,0,0,1-.32.24l-.5.34-.13.09-.1.07-.2.14-.13.09-.12.08-.09.07-.15.11-.1.08-.07.06-.06.06,0,0-.08.08-.47,1-.48,1c-.4.81-.69,1.38-1,1.94a13,13,0,0,1-1.41,2c-1.19,1.42-2.34,2.14-3.42,2.14h-.21a3.16,3.16,0,0,1-.68-.14c-.09.19-.19.43-.32.78,0,0,0,0,0,0l0,.14c0,.11,0,.22-.08.33s-.07.29-.1.42-.08.24-.12.35v.07l0,.08c0,.1-.06.2-.08.29a1.46,1.46,0,0,0,0,.2l0,.06a1.05,1.05,0,0,1,0,.19l-.11.42c0,.14-.08.29-.11.43l0,.08,0,.14,0,.06a.75.75,0,0,1,0,.16,3,3,0,0,1-.12.4,5.68,5.68,0,0,1-.27.7,3.78,3.78,0,0,1-.17.35c-.07.11-.13.22-.2.32s-.23.34-.35.49l-.13.16c-.09.1-.17.21-.26.33s-.3.42-.45.65-.42.63-.62,1-.42.67-.66,1-.51.67-.71.91l-.24.28-.08.09-.08.1-.06.06-.11.14-.09.13-.1.12c-.13.17-.26.36-.38.54a4.73,4.73,0,0,1-.31.43l-.06.08-.07.08-.08.12-.09.13,0,.05,0,.07c-.1.16-.21.33-.32.48l0,.06-.13.17-.18.2-.18.17-.18.12-.15.09,0,0-.06,0-.2.1-.21.08-.15.06-.18.08,0,0-.12.08,0,0a3.49,3.49,0,0,1-.39.19.62.62,0,0,1-.23.07h-.13a.87.87,0,0,1-.4-.09l0,0,0,0,0,0,0,0-.07-.05a.73.73,0,0,0-.2-.1l-.16-.06-.09,0-.13,0c-.28-.1-.56-.2-.84-.33l-.5-.25-.12-.06-.17-.09-.07,0-.35-.17-.11,0-.3-.13a9.94,9.94,0,0,0-1.68-.51c-.38-.07-.77-.14-1.15-.19a5.38,5.38,0,0,0-.9-.08H105a7.37,7.37,0,0,0-1.09.17,8.59,8.59,0,0,0-1.15.34l-.34.15-.06,0-.25.15-.37.24-.24.16c-.24.15-.5.31-.86.5l-.26.14,0,0-.57.31c-.26.15-.53.33-.84.55a10.67,10.67,0,0,0-.84.67l-.25.23-.12.11-.2.17-.2.18-.24.22-.19.17-.38.35c-.29.26-.57.52-.84.8s-.54.54-.83.84l-1.27,1.36-.67.75c-.12.12-.23.25-.34.38a3.37,3.37,0,0,0-.29.35l-.4.48-.42.54-.3.4-.18.24-.32.42c-.12.17-.25.33-.38.49l-.06.08-.13.15-.05.06-.18.22c-.22.25-.45.49-.67.72l-.06.07,0,0-.36.37-.49.5-.48.51-.08.09c-.07.08-.15.15-.23.23l0,.06-.08.08-.06.06-.11.12-.23.22-.34.31,0,0c-.29.25-.59.48-.88.7l-.58.43-.29.21-.14.11-.11.08L84,248h0l-.29.14c-.08,0-.16.07-.24.12l-.25.11,0,0h0l0,0-.12,0-.11,0-.28.1-.13,0-.15.05-.07,0-.21.08-.24.06-.08,0-.09,0-.07,0-.13,0-.21.05a2,2,0,0,0-.41.13l-.43.13a1.07,1.07,0,0,1-.25,0H80s0,0-.08,0h-.13l-.15,0h-.1l-.13,0-.13,0h-.11l-.13,0-.08,0-.15-.06,0,0-.15-.07-.06,0-.13-.06-.13-.06-.18-.11-.06,0,0,0-.1-.07-.07-.05,0,0-.09-.07-.27-.22a1.07,1.07,0,0,1-.16-.14l-.06-.06-.13-.12,0,0L77,247.8l-.11-.12c-.15-.17-.31-.35-.45-.53l-.28-.34-.13-.16c-.25-.32-.51-.64-.77-1l-.45-.53-.26-.31-.11-.12-.13-.16-.13-.16-.11-.13-.06-.07-.07-.09-.12-.15-.06-.09-.18-.26-.15-.22-.06-.1-.13-.2-.11-.19-.11-.19-.08-.15-.08-.15-.07-.13,0-.07c-.07-.13-.14-.26-.22-.39l0-.08a1.71,1.71,0,0,0-.13-.23l-.18-.29-.2-.31-.15-.21,0-.05-.3-.41-.29-.37-.41-.52-.22-.28c-.16-.21-.32-.43-.49-.64s-.23-.27-.34-.4-.21-.2-.31-.3l0,0-.07-.06-.05,0,0,0-.06,0-.09-.06a1.58,1.58,0,0,0-.24-.15l-.3-.14-.15,0-.07,0h-.05a1.46,1.46,0,0,0-.22,0h-.21a.76.76,0,0,0-.21,0l-.08,0-.08,0-.08,0-.12.06-.2.13a4.39,4.39,0,0,0-.36.28,3.28,3.28,0,0,0-.34.31l-.18.17-.16.17-.25.29c0,.05-.09.11-.14.17l0,.07,0,.06-.28.41-.15.21,0,.07-.06.09,0,0-.06.09,0,.06,0,.06,0,0-.12.12c-.44.89-.87,1.78-1.3,2.68l-.13.28-.1.21c-.45,1-.93,1.95-1.38,2.95l-.14.32c-.48,1.06-1,2.27-1.6,3.29-.86,1.56-2.21,3.42-3.72,3.42a1.68,1.68,0,0,1-.5-.07,4.44,4.44,0,0,1-2.23-1.78l-.12-.15,0,0c-.25-.34-.51-.68-.75-1.08a14.62,14.62,0,0,1-1.6-3.58,21.33,21.33,0,0,1-.71-4.23c-.12-1.49-.18-2.93-.16-4.28v-.46c0-.58,0-1.3.05-2,.06-1,.11-1.84.23-2.68s.27-1.61.43-2.31A18.42,18.42,0,0,1,52,227.13a9.19,9.19,0,0,1,1.69-2.64,2.79,2.79,0,0,1,1-.67,5.48,5.48,0,0,1,.67-.17l.82-.16-.11,0a3,3,0,0,1-1.23-.36,7.77,7.77,0,0,1-2.63-3.29,21.47,21.47,0,0,1-1.86-5,27.7,27.7,0,0,1-.58-3.8,2.49,2.49,0,0,0-.6.2c-.42.2-.84.42-1.25.64-.14.42-.29.83-.43,1.24l-.15.46,0,.12c-.1.29-.19.58-.3.86-.33.93-.7,1.87-1.2,3.06l-.1.22c-.46,1.11-.94,2.25-1.38,3.44-.28.76-.55,1.52-.82,2.29l-.06.19-.54,1.52c-.44,1.24-.91,2.42-1.4,3.5l-.62,1.32-.1.22-.9,1.94c-.44,1-.86,2.07-1.24,3-.73,1.81-1.5,3.63-2.18,5.24l-.78,1.84c-.69,1.65-1.32,3.46-1.92,5.21l-.81,2.31c-.36,1-.73,2-1.05,2.81-.54,1.44-1.16,3.07-1.7,4.72-.25.77-.49,1.55-.73,2.34l-.47,1.49-.05.17-.31,1a25.29,25.29,0,0,1,2.38-.88l.27-.09.59-.2.69-.25.69-.24,2-.73c1.53-.53,3.35-1.14,5.16-1.59L42,258c1.11-.27,2.37-.58,3.6-.92l.5-.14a96.82,96.82,0,0,1,10.16-2.41c1.31-.21,2.63-.38,3.91-.55h0c2.07-.27,4.43-.58,6.7-1.06,3.39-.72,6.92-1.57,10.82-2.61.74-.19,1.47-.39,2.21-.6a.05.05,0,0,0,0,0,.14.14,0,0,0,.07,0h.36l.16-.05h0l.42-.14a1.77,1.77,0,0,1,.31-.08h.09l.21-.06.18,0,.1,0,.1,0,.19-.06.06,0,.09,0,.05,0,.26-.08.42-.15.15-.06.07,0,.12-.05,0,0,.63-.16.65-.18,3.54-1c2-.54,3.93-1.15,6-1.77l.11,0c1.55-.48,3.09-1,4.64-1.4q.94-.29,1.89-.54l.11,0c1-.27,2.06-.57,3.13-.91,1.84-.58,3.65-1.2,5.21-1.73l.81-.29.78-.27,3.55-1.24.35-.12.13,0c.61-.22,1.3-.46,1.95-.72a13.35,13.35,0,0,0,2.05-1.13L119,237a14.5,14.5,0,0,0,1.63-1.27l.62-.52.1-.08.08-.07.06-.05c.31-.25.58-.47.86-.72s.6-.58.89-.88l.06-.06.06-.07c.22-.23.45-.45.67-.66a11.76,11.76,0,0,1,1.79-1.34c.85-.53,1.73-1,2.51-1.35l.05,0c.42-.2.84-.41,1.26-.64l.26-.13.17-.09.21-.11c.38-.21.81-.45,1.23-.64.62-.29,1.27-.57,2-.86,2-.78,3.63-1.52,5.14-2.24s3.38-1.6,5.24-2.36c.76-.32,1.57-.66,2.38-1l1.54-.75.93-.46c1.59-.77,3.25-1.5,5.07-2.23l1.39-.57c1.26-.51,2.5-1,3.72-1.48l1.4-.52.14,0,.1,0c1.12-.42,2.27-.85,3.4-1.3l1.17-.48.29-.13c1.22-.51,2.47-1,3.73-1.43l.78-.24H170l.19-.06,1.53-.48c.78-.27,1.6-.61,2.53-1s1.71-.85,2.55-1.27l.13-.07.06,0c.7-.35,1.39-.71,2.09-1.05s1.56-.75,2.4-1.1c.68-.29,1.35-.53,2.1-.78l.31-.11c1-.35,1.78-.64,2.51-.93s1.72-.77,2.52-1.17l.48-.24a43.24,43.24,0,0,0,4.25-2.31l.63-.42c-.24-.54-.53-1.08-.92-1.78-.23-.42-.47-.82-.71-1.22.23.84.46,1.64.68,2.45l-.09-.27,0-.07c-.26-.66-.52-1.35-.8-2q-.57-1.29-1.14-2.55l-.09-.2-.34-.72c-.21-.46-.43-.93-.63-1.42l-.69-1.69-.09-.23-.27-.69-.18-.54c-.23-.66-.51-1.48-.76-2.32-.16-.56-.32-1.11-.47-1.68l0-.14c0-.12,0-.24-.07-.37l0-.2,0-.17,0-.08h0c0-.1,0-.2,0-.3s0-.17,0-.23a1.4,1.4,0,0,0-.09-.29.41.41,0,0,0,0-.09l0,0s-.07.05-.08.11a.64.64,0,0,0,0,.24,1.29,1.29,0,0,1,0,.19v.35c0,.4,0,.74,0,1.12v.1a.49.49,0,0,0,0,.15l0,.07a.54.54,0,0,0,.06.11.25.25,0,0,1,0,.1.25.25,0,0,1,0,.13s0,.05-.05.05a.05.05,0,0,1,0,0,.31.31,0,0,1-.06-.13l0-.12a.56.56,0,0,1,0-.15v-.08l0-.35c0-.18,0-.37,0-.55,0-.37,0-.74,0-1.11v-1Z"/></g><g id="Layer_6" data-name="Layer 6"><path class="cls-7" d="M152.34,46.42a6.08,6.08,0,0,1-.81,2.11,3.73,3.73,0,0,0-.05-1.9c0-.12.06-.24.08-.37Z"/><path class="cls-3" d="M149.75,49.23a4.14,4.14,0,0,0,1.73-2.6,3.73,3.73,0,0,1,.05,1.9,4.47,4.47,0,0,1-1.14,1.2s0,0,0,0A.86.86,0,0,1,149.75,49.23Z"/><path class="cls-3" d="M151.53,48.53a2.21,2.21,0,0,1-.61,1,.72.72,0,0,1-.53.21A4.47,4.47,0,0,0,151.53,48.53Z"/><path class="cls-7" d="M148.77,43c-.81-.29-1,0-1.61-.51a4.56,4.56,0,0,0,.72.11,12.06,12.06,0,0,0,2.72.1.34.34,0,0,0-.2.3.3.3,0,0,0,.16.32l.28-.73a.46.46,0,0,1,.33.53c0,.18-.07.3-.45.36a6.48,6.48,0,0,1-1.09,0A2.55,2.55,0,0,0,148.77,43Z"/><path class="cls-7" d="M147.62,37.11a1.13,1.13,0,0,1-.4,1.24.73.73,0,0,0,.07-.45c0-.21-.06-.44-.09-.67Z"/><path class="cls-3" d="M147.22,38.35a.84.84,0,0,1-1,.4,2.28,2.28,0,0,0,.95-.37Z"/><path class="cls-7" d="M145.81,39.47l.6.39a3.26,3.26,0,0,0-.38.93A7.57,7.57,0,0,1,145.81,39.47Z"/><path class="cls-3" d="M146.9,42.25a2.35,2.35,0,0,0,.26.22A1.25,1.25,0,0,1,146,40.79,3.1,3.1,0,0,0,146.9,42.25Z"/><path class="cls-3" d="M145.72,38a2,2,0,0,0,1-.29.38.38,0,0,0,.14-.44l.34-.08c0,.23.06.46.09.67a.73.73,0,0,1-.07.45l0,0a2.28,2.28,0,0,1-.95.37.69.69,0,0,1-.51-.61Z"/><path class="cls-3" d="M145.37,42.12a3.14,3.14,0,0,1,.37-2.68l.07,0a7.57,7.57,0,0,0,.22,1.32,1.25,1.25,0,0,0,1.13,1.68c.59.47.8.22,1.61.51a2.55,2.55,0,0,1,.86.51l-1.82-.12A2.74,2.74,0,0,1,145.37,42.12Z"/><path class="cls-3" d="M144.2,38.8a.79.79,0,0,1,1.54,0A8,8,0,0,1,144.2,38.8Z"/><path class="cls-3" d="M146.2,44c-1.64-1-1.81-3.2-2-4.93a.78.78,0,0,1,0-.27,8,8,0,0,0,1.54,0h0c0,.22,0,.43.07.63l-.07,0a3.14,3.14,0,0,0-.37,2.68,2.74,2.74,0,0,0,2.44,1.25l1.82.12a4.32,4.32,0,0,1,.9,1,7.43,7.43,0,0,1,.95,2.09,4.14,4.14,0,0,1-1.73,2.6.8.8,0,0,1,.18-.94c.58-.55-.38-2.54-.82-3.07a2,2,0,0,0-1.43-.8A3.7,3.7,0,0,1,146.2,44Z"/><path class="cls-3" d="M141,27.31a.71.71,0,0,1,.5-.84.81.81,0,0,1,1,.48,11.92,11.92,0,0,1-1.52.38Z"/><path class="cls-7" d="M145.83,30.49c-2.26,1.82-2.7,1.58-2.7,1.58-.18-.17.08-1.34.67-2.56l-.71-.34a9.65,9.65,0,0,0-.45,1,.29.29,0,0,1,0,.09c.09,1,.1,2.59,1.31,2.36h0a11.92,11.92,0,0,0,2.38-1.61A3.71,3.71,0,0,1,145.83,30.49Z"/><path class="cls-3" d="M143.39,32.86a.92.92,0,0,1-.74-.17c-.58-.44-.35-1.55,0-2.47a.29.29,0,0,1,0,.09c.09,1,.1,2.59,1.31,2.36A2.27,2.27,0,0,1,143.39,32.86Z"/><path class="cls-3" d="M141.1,30.55a.73.73,0,0,1,.3-.7.75.75,0,0,1,1.24.37c-.34.92-.57,2,0,2.47a.92.92,0,0,0,.74.17,2.27,2.27,0,0,0,.58-.19h0a2,2,0,0,0,.55-.21.77.77,0,0,1,.8.08c1.14,1,1.58,3.09,1.84,4.7l-.34.08a.38.38,0,0,1-.14.44,2,2,0,0,1-1,.29,10.57,10.57,0,0,0-1-3.92,2.36,2.36,0,0,1-2.32-.16C141.24,33.21,141.22,31.77,141.1,30.55Z"/><path class="cls-3" d="M137.64,28.64a4.66,4.66,0,0,1-2.54-2.26c-.24-.62,0-1.35-.27-1.94-.33-.86-1.06-.63-1.73-1a.84.84,0,0,1,0-1.47h0a2.5,2.5,0,0,1,.6.26l.13-.22c.63.25,1.21,0,1.78.52a2.53,2.53,0,0,1,.78,1.45c.27,1.26.06,2.08,1.31,2.85.3.18,3.55,1.82,3.31.45a11.92,11.92,0,0,0,1.52-.38.53.53,0,0,1,0,.12,2,2,0,0,1-1.26,2.38h0C140.06,29.83,138.65,29.15,137.64,28.64Z"/><path class="cls-7" d="M146.87,48.45c-3.86.39-7.53,6.42-7.69,6.84l-.31-.1-.47.07c-.07-.46,1.67-2.72,1.69-2.75,1.3-1.68,3.92-4.56,6.69-4.85Z"/><path class="cls-3" d="M133.06,22a.67.67,0,0,1,.62,0,.3.3,0,0,0,.11,0l-.13.22A2.5,2.5,0,0,0,133.06,22Z"/><path class="cls-7" d="M130.57,22.21c.08-.31.15-.62.22-.95a1.71,1.71,0,0,1,.3-.09,4.17,4.17,0,0,1,3,.44l-.29.45a.3.3,0,0,1-.11,0,.67.67,0,0,0-.62,0h0a3.1,3.1,0,0,0-2.48.19Z"/><path class="cls-7" d="M131.85,37l-.06-.79c.37,0,.78.25,1.67,1l.22.16a26.9,26.9,0,0,1,.43-6.72c.06-.3.09-.47.1-.5l.77.19a26.22,26.22,0,0,0-.46,7.65c.87.62,1.82,1.12,2.26.71.27-.25.49-.5.71-.74.9-1,1.75-1.93,3.6-.83a8.93,8.93,0,0,0,4.63.93v.1a.69.69,0,0,0,.51.61l-.2,0-.3,0a.79.79,0,0,0-1.54,0,9.42,9.42,0,0,1-3.51-1c-1.31-.77-1.75-.29-2.61.68-.23.25-.47.52-.75.78-.71.67-1.72.35-2.7-.26a22.29,22.29,0,0,0,.69,3.44l-.76.22a23.59,23.59,0,0,1-.79-4.24c-.28-.21-.55-.41-.79-.61A6.44,6.44,0,0,0,131.85,37Z"/><path class="cls-3" d="M128.79,24.1a4.88,4.88,0,0,1,1.78-1.89,11.82,11.82,0,0,0-.33,1.74c0,.87-1.18.86-1.48.21A.11.11,0,0,1,128.79,24.1Z"/><path class="cls-3" d="M134.36,52a23.59,23.59,0,0,0,.4,4.56,5,5,0,0,0-2.1-1.18Z"/><path class="cls-3" d="M128.85,22.64a4.37,4.37,0,0,1,1.94-1.38c-.07.33-.14.64-.22.95a4.88,4.88,0,0,0-1.78,1.89.11.11,0,0,0,0,.06.63.63,0,0,1-.09-.39,5.94,5.94,0,0,1,.18-1.11S128.85,22.64,128.85,22.64Z"/><path class="cls-3" d="M128.76,24.16c.3.65,1.45.66,1.48-.21a11.82,11.82,0,0,1,.33-1.74,3.1,3.1,0,0,1,2.48-.19.84.84,0,0,0,0,1.47c.67.32,1.4.09,1.73,1,.23.59,0,1.32.27,1.94a4.66,4.66,0,0,0,2.54,2.26c1,.51,2.42,1.19,3.59.82h0l.14.4a.73.73,0,0,0-.3.7c.12,1.22.14,2.66,1.27,3.41a2.36,2.36,0,0,0,2.32.16,10.57,10.57,0,0,1,1,3.92,8.93,8.93,0,0,1-4.63-.93c-1.85-1.1-2.7-.16-3.6.83-.22.24-.44.49-.71.74-.44.41-1.39-.09-2.26-.71a26.22,26.22,0,0,1,.46-7.65l-.77-.19s0,.2-.1.5l-1.35-.26-.08-.49,0-.3c-.28,0-3.27-1.1-4.14-3A2.5,2.5,0,0,1,128.76,24.16Z"/><path class="cls-7" d="M132.76,30.37a8.22,8.22,0,0,1-4.57-2.89,3.36,3.36,0,0,1-.09-3.77,6.13,6.13,0,0,1,.75-1.05,5.94,5.94,0,0,0-.18,1.11.63.63,0,0,0,.09.39,2.5,2.5,0,0,0-.17,2.43c.87,1.89,3.86,2.94,4.14,3l0,.3Z"/><path class="cls-7" d="M145.28,143l-.71.32a12.88,12.88,0,0,1-.56-1.59,3.35,3.35,0,0,1,.79-.12C145.06,142.46,145.28,143,145.28,143Z"/><path class="cls-3" d="M139.18,55.29c.16-.42,3.83-6.45,7.69-6.84l-.09-.79c-2.77.29-5.39,3.17-6.69,4.85,0,0-1.76,2.29-1.69,2.75l.47-.07Zm-3.39,2.07c-.84-2.22-.61-7-.61-7.06l.1-1.88-3.69,7.38-2.18-1.09a1.74,1.74,0,0,0,.08-.24l0-.09c0-.07.29-2,4.11-10.08l.09-.21-.13-.18c-.08-.13-.17-.24-.25-.36l1.23-.9.76-.22a22.29,22.29,0,0,1-.69-3.44c1,.61,2,.93,2.7.26.28-.26.52-.53.75-.78.86-1,1.3-1.45,2.61-.68a9.42,9.42,0,0,0,3.51,1,.78.78,0,0,0,0,.27c.21,1.73.38,3.9,2,4.93a3.7,3.7,0,0,0,1.48.42,2,2,0,0,1,1.43.8c.44.53,1.4,2.52.82,3.07a.8.8,0,0,0-.18.94,9,9,0,0,1-3.7,1.2,5.83,5.83,0,0,0-4.7,3.62,5.33,5.33,0,0,1-.68,1.08c-1.16,1.23-3.28,3-4.34,2.77C136.18,57.87,136,57.78,135.79,57.36Z"/><path class="cls-7" d="M132.32,62.25a2.06,2.06,0,0,0,1-1.09,2,2,0,0,0-.41-1.64l.66-.44a2.45,2.45,0,0,1-.94,3.89l-.16-.36Z"/><path class="cls-1" d="M133.32,61.16a2.06,2.06,0,0,1-1,1.09l.15.36.16.36a2.45,2.45,0,0,0,.94-3.89l-.66.44A2,2,0,0,1,133.32,61.16Zm1.26-3.59a5.26,5.26,0,0,1,.75,4,5.58,5.58,0,0,1-5.08,5.11c.48-2.76,1-5.82,1.53-9.31a1.75,1.75,0,0,1,.13-.82h.17l.22-.45A4,4,0,0,1,134.58,57.57Z"/><path class="cls-7" d="M125.2,14.21c-1.28.2-2.57.38-3.57.51a5.7,5.7,0,0,0,.69.7c.9-.12,2.07-.28,3.24-.46h.06A4.15,4.15,0,0,1,125.2,14.21Z"/><path class="cls-3" d="M120.79,15.63l-.1-.78.94-.13a5.7,5.7,0,0,0,.69.7Z"/><path class="cls-3" d="M119.85,14.39a.81.81,0,0,1,1-.5A8.86,8.86,0,0,1,119.85,14.39Z"/><path class="cls-3" d="M128.85,22.64c.28-1.18.7-2.49.13-3.32s-.81-.61-1.72-.61a10.78,10.78,0,0,1-2.19-.17A8.17,8.17,0,0,1,120,15.13a.75.75,0,0,1-.1-.74,8.86,8.86,0,0,0,1-.5.69.69,0,0,1,.29.25c.14.2.29.39.45.58l-.94.13.1.78,1.53-.21A6.45,6.45,0,0,0,126,17.08c1.18.15,3-.5,4.09.12,1.23.71,1,2.44.71,4.06A4.37,4.37,0,0,0,128.85,22.64Z"/><path class="cls-7" d="M125.87,24.62c-.52,0-5.06-.45-5.86-2.35a2,2,0,0,1,.55-2.12,3.89,3.89,0,0,1,2.87-1.54A5.38,5.38,0,0,1,127,20.24l-.57.54a4.65,4.65,0,0,0-3-1.38,3.06,3.06,0,0,0-2.27,1.26c-.65.77-.48,1.17-.43,1.31.46,1.09,3.43,1.73,5.2,1.86Z"/><path class="cls-7" d="M121.89,28.23c-3.13.18-4.18-3.13-4.31-4.9l.79,0c0,.18.34,4.34,3.47,4.16A12.52,12.52,0,0,1,128.45,29l.49.24-.32.72-.52-.25A11.67,11.67,0,0,0,121.89,28.23Z"/><path class="cls-7" d="M122.44,11.79a8.18,8.18,0,0,1-5.75,2.47v.1l-.05.69a5.59,5.59,0,0,0,1.16-.08,8.3,8.3,0,0,0,2.06-.58.81.81,0,0,1,1-.5,11.55,11.55,0,0,0,2.27-1.7A3.59,3.59,0,0,1,122.44,11.79Z"/><path class="cls-7" d="M115.49,12.49a7.88,7.88,0,0,0-1-.54c.29,0,.59-.1.9-.16Z"/><path class="cls-3" d="M111.07,12.32a5,5,0,0,1,1.19-.56,3.25,3.25,0,0,1,2.19.19A29,29,0,0,1,111.07,12.32Z"/><path class="cls-3" d="M113.27,13.28l.18.09-.22,0Z"/><path class="cls-7" d="M111.71,25.28c-.49-1-.37-2.43.33-4.2a20.88,20.88,0,0,1,1.4-2.87,3.91,3.91,0,0,1-.44-.65,4.45,4.45,0,0,1,.23-4.21l.22,0,.53.27a3.76,3.76,0,0,0-.29,3.55,2.23,2.23,0,0,0,.2.3,8,8,0,0,1,1.73-2l.46.65a7.26,7.26,0,0,0-1.65,1.95,10,10,0,0,0,4.7,2l-.1.78a10.84,10.84,0,0,1-5-2.06,17.58,17.58,0,0,0-1.24,2.56c-.76,1.94-.62,3-.35,3.58a1.39,1.39,0,0,0,.71.73l-.24.75A2.1,2.1,0,0,1,111.71,25.28Z"/><path class="cls-3" d="M114.19,12.8a30.56,30.56,0,0,1-4,.34H110v0a9.24,9.24,0,0,1,1.1-.79,29,29,0,0,0,3.38-.37,7.88,7.88,0,0,1,1,.54v.08C115,12.66,114.6,12.74,114.19,12.8Z"/><path class="cls-7" d="M110.19,12.35l.88,0a9.24,9.24,0,0,0-1.1.79l-.11-.74Z"/><path class="cls-3" d="M110.32,15a8.38,8.38,0,0,1-3.5,1.62.79.79,0,0,1-.27-1.55h0A7.72,7.72,0,0,0,110,13.11v0h.24a30.56,30.56,0,0,0,4-.34c.41-.06.85-.14,1.31-.23v-.08c.32.21.63.42.91.64a.77.77,0,0,1,0,1.21.72.72,0,0,1-1,.06,4.17,4.17,0,0,0-2-1l-.18-.09,0,.07a2.54,2.54,0,0,0-1,.22A12.09,12.09,0,0,0,110.32,15Z"/><path class="cls-7" d="M115.12,48.57a4.21,4.21,0,0,0-3.6.58c-1.89,1.47-2,4.65-2,4.68l-.79,0c0-.15.16-3.58,2.35-5.27a4.93,4.93,0,0,1,4.24-.74A5.3,5.3,0,0,1,119,50.3c1.31,2.37.28,5.34.23,5.47l-.74-.27s1-2.76-.18-4.82A4.53,4.53,0,0,0,115.12,48.57Z"/><path class="cls-7" d="M108.87,17.8l.41.67a13.78,13.78,0,0,1-4.42,1.77,3.78,3.78,0,0,1-1.85-.11,2,2,0,0,1-.58-.34l.16-.16a.89.89,0,0,0,.38-.44.91.91,0,0,0,.33.2C104.81,20,107.83,18.45,108.87,17.8Z"/><path class="cls-3" d="M103,19.19a1.28,1.28,0,0,1-.5-.77,2.09,2.09,0,0,1-.08-.34A.85.85,0,0,1,103,19.19Z"/><path class="cls-3" d="M102.43,19.79a2.29,2.29,0,0,1-.72-1.14,2.68,2.68,0,0,1-.07-.27h0l.31-.19a.81.81,0,0,1,.44-.1,2.09,2.09,0,0,0,.08.34,1.28,1.28,0,0,0,.5.77.89.89,0,0,1-.38.44Z"/><path class="cls-3" d="M120,22.27c.8,1.9,5.34,2.31,5.86,2.35l.07-.79c-1.77-.13-4.74-.77-5.2-1.86,0-.14-.22-.54.43-1.31a3.06,3.06,0,0,1,2.27-1.26,4.65,4.65,0,0,1,3,1.38l.57-.54a5.38,5.38,0,0,0-3.59-1.63,3.89,3.89,0,0,0-2.87,1.54A2,2,0,0,0,120,22.27Zm-1.64,1-.79,0c.13,1.77,1.18,5.08,4.31,4.9a11.67,11.67,0,0,1,6.21,1.46l.52.25.32-.72-.49-.24a12.52,12.52,0,0,0-6.61-1.54C118.71,27.62,118.38,23.46,118.37,23.28Zm10.61-4c.57.83.15,2.14-.13,3.32,0,0,0,0,0,0a6.13,6.13,0,0,0-.75,1.05,3.36,3.36,0,0,0,.09,3.77,8.22,8.22,0,0,0,4.57,2.89l1.35.26a26.9,26.9,0,0,0-.43,6.72l-.22-.16c-.89-.71-1.3-1-1.67-1l.06.79a6.44,6.44,0,0,1,1.13.78c.24.2.51.4.79.61a23.59,23.59,0,0,0,.79,4.24l-1.23.9c-7.71-10.75-18.51-15.72-25.47-16.69a64.63,64.63,0,0,0-18.49,0c1-.7,8.33-5.75,12.74-6.49l0-.18a1.09,1.09,0,0,0,.23-.29l.12-.13a2,2,0,0,0,.58.34,3.78,3.78,0,0,0,1.85.11,13.78,13.78,0,0,0,4.42-1.77l-.41-.67c-1,.65-4.06,2.17-5.57,1.59a.91.91,0,0,1-.33-.2.85.85,0,0,0-.58-1.11,2,2,0,0,1,.27-1.28c.73-1.27,2.65-2.06,3.7-2.41l.19.64a.79.79,0,0,0,.27,1.55,8.38,8.38,0,0,0,3.5-1.62,12.09,12.09,0,0,1,1.89-1.39,2.54,2.54,0,0,1,1-.22,4.45,4.45,0,0,0-.23,4.21,3.91,3.91,0,0,0,.44.65,20.88,20.88,0,0,0-1.4,2.87c-.7,1.77-.82,3.18-.33,4.2a2.1,2.1,0,0,0,1.18,1.15l.24-.75a1.39,1.39,0,0,1-.71-.73c-.27-.57-.41-1.64.35-3.58A17.58,17.58,0,0,1,114,18.81a10.84,10.84,0,0,0,5,2.06l.1-.78a10,10,0,0,1-4.7-2,7.26,7.26,0,0,1,1.65-1.95l-.46-.65a8,8,0,0,0-1.73,2,2.23,2.23,0,0,1-.2-.3,3.76,3.76,0,0,1,.29-3.55l-.53-.27a4.17,4.17,0,0,1,2,1,.72.72,0,0,0,1-.06l.24,0-.05.69a5.59,5.59,0,0,0,1.16-.08,8.3,8.3,0,0,0,2.06-.58.75.75,0,0,0,.1.74,8.17,8.17,0,0,0,5.12,3.41,10.78,10.78,0,0,0,2.19.17C128.17,18.71,128.39,18.47,129,19.32Z"/><path class="cls-7" d="M101.64,18.37a2.77,2.77,0,0,1,.33-2c1.19-2.06,4.74-2.94,4.89-3l.19.77s-.28.07-.69.2c-1,.35-3,1.14-3.7,2.41a2,2,0,0,0-.27,1.28.81.81,0,0,0-.44.1Z"/><path class="cls-3" d="M102.08,20.21a.72.72,0,0,1-1,.07,3.82,3.82,0,0,0-.47-.35,12.2,12.2,0,0,1,1.34-.31Z"/><path class="cls-3" d="M98,16a14,14,0,0,1,.5-5.2.75.75,0,0,1,.29.32,2.57,2.57,0,0,1,.24.86,13.14,13.14,0,0,0-.24,3.93Z"/><path class="cls-3" d="M97.31,14.27a10.45,10.45,0,0,1,.11-1.39.83.83,0,0,1-.51-.43c.34-.61.72-1.22,1.13-1.82a.75.75,0,0,1,.43.13A14,14,0,0,0,98,16l.79-.09A13.14,13.14,0,0,1,99,11.94c.12,1-.19,2.21,0,3.23a4,4,0,0,0,1.76,3c.22.14.44.24.65.36a2.11,2.11,0,0,1,.23-.19,2.68,2.68,0,0,0,.07.27,2.29,2.29,0,0,0,.72,1.14l-.12.13a1.09,1.09,0,0,1-.23.29l-.1-.59a12.2,12.2,0,0,0-1.34.31A8.7,8.7,0,0,1,99.08,19a4.75,4.75,0,0,1-1.22-2A9.75,9.75,0,0,1,97.31,14.27Z"/><path class="cls-3" d="M96.91,12.45a.77.77,0,0,1,.16-1l.24-.36a.77.77,0,0,1,.73-.48C97.63,11.23,97.25,11.84,96.91,12.45Z"/><path class="cls-7" d="M92.77,12A.73.73,0,0,0,92.88,11a1.45,1.45,0,0,0-.64-.46c-.06-.16-.11-.32-.16-.47l.75-.26c.07.21,1,2.86,1.86,5.54a21.8,21.8,0,0,1,4.68-7.46l.31.33a8.52,8.52,0,0,1,1.43-1.67l.51.61A8.55,8.55,0,0,0,99,11.94a2.57,2.57,0,0,0-.24-.86.75.75,0,0,0-.29-.32A10,10,0,0,1,99,9.39,14.41,14.41,0,0,0,98,10.63a.77.77,0,0,0-.73.48l-.24.36a.77.77,0,0,0-.16,1,33,33,0,0,0-1.84,4c.67,2,1.24,3.87,1.32,4.38l-.78.11c-.07-.45-.62-2.22-1.31-4.31l-.11,0a1.07,1.07,0,0,1,0-.16C93.77,15,93.24,13.43,92.77,12Z"/><path class="cls-3" d="M92.77,12l-.53-1.54a1.45,1.45,0,0,1,.64.46A.73.73,0,0,1,92.77,12Z"/><path class="cls-3" d="M88.7,14A4.92,4.92,0,0,1,86,11.86c-.08-.6-.15-1.13-.23-1.54a.78.78,0,0,1,1.29.2,3.44,3.44,0,0,0,1.66,1.74c.82-1,2.35-2.21,3.52-1.77L92.77,12a.78.78,0,0,1-1.12-.09,9.55,9.55,0,0,0-1.13.69,3.82,3.82,0,0,0-.89,1.07A.8.8,0,0,1,88.7,14Z"/><path class="cls-3" d="M85.77,10.32c.08.41.15.94.23,1.54a4.28,4.28,0,0,1-.38-.7A.7.7,0,0,1,85.77,10.32Z"/><path class="cls-1" d="M111.52,49.15a4.21,4.21,0,0,1,3.6-.58,4.53,4.53,0,0,1,3.2,2.11c1.13,2.06.18,4.8.18,4.82l.74.27c.05-.13,1.08-3.1-.23-5.47a5.3,5.3,0,0,0-3.72-2.51,4.93,4.93,0,0,0-4.24.74c-2.19,1.69-2.35,5.12-2.35,5.27l.79,0S109.63,50.62,111.52,49.15Zm-22-5.79a4.15,4.15,0,0,1,3.59-.59,4.54,4.54,0,0,1,3.2,2.12c1.14,2,.19,4.79.18,4.82l.74.27c0-.13,1.08-3.1-.23-5.47A5.27,5.27,0,0,0,93.24,42a4.93,4.93,0,0,0-4.25.74c-2.18,1.69-2.33,5.12-2.34,5.27l.79,0S87.58,44.83,89.48,43.36Zm.64,17c.31,3,3.57,5,3.71,5.07l.4-.68s-3.06-1.87-3.32-4.46c-.14-1.38.53-2.75,2-4.08A4,4,0,0,1,96.4,55c3.64.7,6.59,6.65,6.62,6.71l.71-.34c-.13-.26-3.16-6.38-7.18-7.15a4.75,4.75,0,0,0-4.18,1.37C90.72,57.12,90,58.71,90.12,60.34Zm3.51,7.3c-9.73,4.09-15.84-6.17-16.36-7.1-.59-2.87.37-12.79.38-12.95-.05-.9-.07-1.44-.08-1.44,0-.17.52-6.33,3.61-10.3a25.7,25.7,0,0,0,2.58-4.06,6.59,6.59,0,0,1,2.95-3.29c2.84-1.56,13.07-2,21-.86,6.84,1,17.48,5.86,25.05,16.53-3.53,7.5-4,9.72-4.07,10.08s-.5,1.48-.89,2.53c-.2.58-.44,1.42-.72,2.41-.71,2.47-1.76,6.19-3,7.3-2.85.82-5.19,1.63-7.26,2.34-7.44,2.56-10.52,3.62-16.86-1.31l-.13-.11-.17,0a9.89,9.89,0,0,1-3.66-.55H95.9A8.61,8.61,0,0,0,93.63,67.64Z"/><g class="cls-8"><path class="cls-9" d="M79.47,21.7c-4.41-2.63-7.83,1.33-8.73,5.42q-3.13,14.41-5,29.05c-.56,4.31.24,9.82,3.68,12.88,0,.3.08.59.14.88a18,18,0,0,0,1.28,3.92A11.38,11.38,0,0,0,72,77.29a9.32,9.32,0,0,0,2,3.11c1.39,1.33,3.33,2.71,5.39,2.2a6.42,6.42,0,0,0,4.31-3.92,15.13,15.13,0,0,0,1.15-5.75,18.39,18.39,0,0,0-1.11-6.31A18.63,18.63,0,0,0,80,60.54q1.78-12.57,4.47-25C85.49,30.9,83.79,24.28,79.47,21.7Z"/><path class="cls-9" d="M94.7,62c-.41.12-1.22-1.22-1.39-1.49A1.85,1.85,0,0,1,93,59c.34-1.42-1.55-3.25-2-1.25a6.2,6.2,0,0,0,.9,4.7c.65,1,2,3.13,3.42,2.71S96,61.65,94.7,62Z"/></g><path class="cls-3" d="M86.14,18.27A2.41,2.41,0,0,1,86,19.34c0-.4-.09-.95-.16-1.58A.71.71,0,0,1,86.14,18.27Z"/><path class="cls-7" d="M86,19.34a2.41,2.41,0,0,0,.11-1.07.71.71,0,0,0-.27-.51c-.29-2.8-.76-7.18-1-8l.75-.24a5.37,5.37,0,0,1,.16.78.7.7,0,0,0-.15.84,4.28,4.28,0,0,0,.38.7c.26,2,.57,4.92.83,7.53,0,.53.08.87.09.93l-.78.11c0-.05,0-.4-.1-1a.4.4,0,0,1,0-.11Z"/><path class="cls-3" d="M84.27,20.54c-.08-.4-.16-.76-.23-1.05a.81.81,0,0,1,.16-.16.87.87,0,0,0,.38-.83.83.83,0,0,1,1.29-.74c.07.63.12,1.18.16,1.58v0a2.51,2.51,0,0,1-.84,1.2.74.74,0,0,1-.93,0Z"/><path class="cls-7" d="M93.83,65.41c-.14-.08-3.4-2.07-3.71-5.07-.16-1.63.6-3.22,2.25-4.74a4.75,4.75,0,0,1,4.18-1.37c4,.77,7,6.89,7.18,7.15l-.71.34c0-.06-3-6-6.62-6.71a4,4,0,0,0-3.5,1.18c-1.46,1.33-2.13,2.7-2,4.08.26,2.59,3.29,4.44,3.32,4.46Z"/><path class="cls-3" d="M84.27,20.57A.76.76,0,0,1,84,19.49c.07.29.15.65.23,1.05Z"/><path class="cls-7" d="M86.65,48c0-.15.16-3.58,2.34-5.27A4.93,4.93,0,0,1,93.24,42,5.27,5.27,0,0,1,97,44.51c1.31,2.37.28,5.34.23,5.47l-.74-.27s1-2.77-.18-4.82a4.54,4.54,0,0,0-3.2-2.12,4.15,4.15,0,0,0-3.59.59c-1.9,1.47-2,4.64-2,4.68Z"/><polygon class="cls-2" points="109.64 82.22 88.72 85.4 86.8 72.77 107.5 74.36 109.64 82.22"/><g class="cls-10"><path class="cls-11" d="M100.8,77.43c-3.24.26-7.25.67-10.22-1,.18,0,.24-.51.06-.69l0,0a3.11,3.11,0,0,0,.23-.75.63.63,0,0,0-.17-.5.59.59,0,0,0-.19-.42l.11-.21c.16-.27-.17-1-.37-.62a12.06,12.06,0,0,0-1.08,2.26c-.22,0-.29.44-.12.65a.51.51,0,0,0,.2.48,7.62,7.62,0,0,1-.31,1.64c-.15.3.25.91.45.48v0a2.94,2.94,0,0,0,.55.89c.32.35.49-.37.26-.61l-.2-.27a8.68,8.68,0,0,1,.35-1.59v0c3.09,1.8,7.2,1.43,10.62,1.15C101.28,78.17,101.16,77.4,100.8,77.43Z"/><path class="cls-11" d="M106.24,77c-.64,1.3-1.11,2.82-2.52,3.47-.3.14-.09.89.26.73,1.51-.7,2-2.34,2.72-3.72C106.84,77.18,106.45,76.57,106.24,77Z"/></g><path class="cls-7" d="M88.8,79.26c2.88.63,8.86,1.64,15.7,2.42a26.22,26.22,0,0,0,1.77-4.17c-1.88-.74-6.89-1.58-11.73-2.38-1.61-.26-3.21-.53-4.68-.79A7,7,0,0,0,88.8,79.26Zm15.86,3.24c-7.17-.83-13.47-1.89-16.29-2.53l-.25-.06-.05-.25a7.8,7.8,0,0,1,1.31-6l.15-.18.23,0,4.91.83c5.44.9,10.58,1.76,12.28,2.59l.31.16-.12.33a25.49,25.49,0,0,1-2.1,4.88l-.13.21Z"/><path class="cls-3" d="M79.68,35.12s-1.09-2.57.35-3.81a16.07,16.07,0,0,1,1.53-1.15,5.51,5.51,0,0,0,2.34-2.45c.81-1.87.92-4.13.37-7.14a.74.74,0,0,0,.93,0,2.51,2.51,0,0,0,.84-1.2.4.4,0,0,0,0,.11c.06.56.1.91.1,1l.78-.11c0-.06,0-.4-.09-.93-.26-2.61-.57-5.52-.83-7.53A4.92,4.92,0,0,0,88.7,14a.8.8,0,0,0,.93-.27,3.82,3.82,0,0,1,.89-1.07,9.55,9.55,0,0,1,1.13-.69.78.78,0,0,0,1.12.09c.47,1.4,1,3,1.47,4.44a1.07,1.07,0,0,0,0,.16l.11,0c.69,2.09,1.24,3.86,1.31,4.31l.78-.11c-.08-.51-.65-2.34-1.32-4.38a33,33,0,0,1,1.84-4,.83.83,0,0,0,.51.43,10.45,10.45,0,0,0-.11,1.39A9.75,9.75,0,0,0,97.86,17a4.75,4.75,0,0,0,1.22,2,8.7,8.7,0,0,0,1.56.91c-4.89,1.45-11.54,6.17-11.85,6.4l.42.59a10.47,10.47,0,0,0-2.88.89,7.4,7.4,0,0,0-3.27,3.61,24.93,24.93,0,0,1-2.5,3.94c-.17.22-.33.43-.48.66h0l-.56-.41.3-.17Z"/><path class="cls-12" d="M95.85,139.87l-.3-.22h0c-.33-.28-.65-.65-.6-.95a1,1,0,0,1,.43-.75.79.79,0,0,1,.35-.13,1.14,1.14,0,0,1,.41,0,1,1,0,0,1,.42.94A1.14,1.14,0,0,1,95.85,139.87Z"/><path class="cls-7" d="M77.27,60.54c.52.93,6.63,11.19,16.36,7.1a8.61,8.61,0,0,1,2.27-.76h.17a9.89,9.89,0,0,0,3.66.55l.17,0,.13.11c6.34,4.93,9.42,3.87,16.86,1.31,2.07-.71,4.41-1.52,7.26-2.34,1.21-1.11,2.26-4.83,3-7.3.28-1,.52-1.83.72-2.41.39-1.05.82-2.32.89-2.53s.54-2.58,4.07-10.08c-7.57-10.67-18.21-15.57-25.05-16.53-8-1.12-18.2-.7-21,.86a6.59,6.59,0,0,0-2.95,3.29,25.7,25.7,0,0,1-2.58,4.06c-3.09,4-3.6,10.13-3.61,10.3,0,0,0,.54.08,1.44C77.64,47.75,76.68,57.67,77.27,60.54Zm-.41-13c0-.88-.07-1.42-.07-1.42,0-.3.46-6,3.29-10.13h0c.15-.23.31-.44.48-.66a24.93,24.93,0,0,0,2.5-3.94,7.4,7.4,0,0,1,3.27-3.61,10.47,10.47,0,0,1,2.88-.89l-.42-.59c.31-.23,7-4.95,11.85-6.4a3.82,3.82,0,0,1,.47.35.72.72,0,0,0,1-.07l0,.18c-4.41.74-11.74,5.79-12.74,6.49a64.63,64.63,0,0,1,18.49,0c7,1,17.76,5.94,25.47,16.69.08.12.17.23.25.36l.13.18-.09.21c-3.82,8.06-4.1,10-4.11,10.08l0,.09a1.74,1.74,0,0,1-.08.24c0,.15-.13.36-.21.61-.18.5-.4,1.15-.61,1.73s-.44,1.39-.72,2.35c-.82,2.92-1.85,6.55-3.28,7.75l-.15.07c-2.85.82-5.21,1.64-7.3,2.35a43.5,43.5,0,0,1-7.09,2.06c-3.4.51-6.27-.22-10.38-3.39a11.73,11.73,0,0,1-3.73-.57,8.1,8.1,0,0,0-2,.69C83.32,72.83,76.62,61,76.55,60.88l0-.11C75.87,57.85,76.82,48,76.86,47.57Z"/><path class="cls-7" d="M70.12,50.23a3.84,3.84,0,0,1,1.27-3.11l.59.52a3.11,3.11,0,0,0-1.08,2.45,1.66,1.66,0,0,0,.75,1.11l-.39.68A2.42,2.42,0,0,1,70.12,50.23Z"/><path class="cls-1" d="M71.39,47.12a3.84,3.84,0,0,0-1.27,3.11,2.42,2.42,0,0,0,1.14,1.65l.39-.68a1.66,1.66,0,0,1-.75-1.11A3.11,3.11,0,0,1,72,47.64ZM69,53.82c-.93-1.88-.62-4.44.91-7.58.07-.1,1.59-2.52,3.63-1.39l.06,0c-.06.78-.1,1.27-.12,1.55a1,1,0,0,0,.16,1Q72.75,52,72,56.35A5.28,5.28,0,0,1,69,53.82Z"/><g class="cls-13"><path class="cls-9" d="M78.57,47.73A11.15,11.15,0,0,0,77.06,44a7.4,7.4,0,0,0-2.28-2.62,5.26,5.26,0,0,0-2.67-1.46l-1.89,0a5.26,5.26,0,0,0-3.21,2l-1.1,1.88a12.62,12.62,0,0,0-1,4.93l-.08,1.21a12.1,12.1,0,0,0,.62,4.19A11.13,11.13,0,0,0,67,57.85a7.52,7.52,0,0,0,2.29,2.62A5.18,5.18,0,0,0,72,61.93l1.89,0a5.29,5.29,0,0,0,3.21-2c.36-.63.73-1.26,1.1-1.88a12.61,12.61,0,0,0,.94-4.93l.08-1.21A12.1,12.1,0,0,0,78.57,47.73Z"/></g><path class="cls-7" d="M67.71,51.62a2.6,2.6,0,0,1,.28.84c.08.48.14.95.19,1.42A5.92,5.92,0,0,1,67.71,51.62Z"/><path class="cls-3" d="M89.53,73.48l-.15.18a7.8,7.8,0,0,0-1.31,6l.05.25.25.06c2.82.64,9.12,1.7,16.29,2.53l.25,0,.13-.21a25.49,25.49,0,0,0,2.1-4.88l.12-.33-.31-.16c-1.7-.83-6.84-1.69-12.28-2.59l-4.91-.83ZM76.79,46.15s0,.54.07,1.42c0,.42-1,10.28-.35,13.2l0,.11c.07.12,6.77,11.95,17.39,7.48a8.1,8.1,0,0,1,2-.69,11.73,11.73,0,0,0,3.73.57c4.11,3.17,7,3.9,10.38,3.39a43.5,43.5,0,0,0,7.09-2.06c2.09-.71,4.45-1.53,7.3-2.35l.15-.07c1.43-1.2,2.46-4.83,3.28-7.75.28-1,.51-1.8.72-2.35s.43-1.23.61-1.73c.08-.25.16-.46.21-.61l2.18,1.09,0,0a.83.83,0,0,0-.16.12,1.85,1.85,0,0,0-.41,1.37c-1.65,10.54-2.91,17.12-4.12,23.49l-.58,3.08c-4.3,10.57-17.36,42.68-47.86,51-1.66-2.32-16.33-25-4-87.43l0-.19-.12-.15a1.07,1.07,0,0,1-.14-.2h0s0-.41.3-3.61h0c.15-.55.27-1,.38-1.51.8-3.13,1-4.07,4.64-6.16l.56.41C77.25,40.18,76.81,45.85,76.79,46.15Z"/><g class="cls-14"><path class="cls-15" d="M120.36,84.88c-.38,1.12-.77,2.24-1.16,3.36-.3-.2-.63-.18-.85.33l-2.2,5.13a3.69,3.69,0,0,0-.74-.12c.6-3,1.21-6,1.85-9,.17-.78-1-2.49-1.45-1.19-.94,2.51-1.82,5.06-2.76,7.58-.24,0-.47.17-.61.67v0c-.58,1.12-1.13,2.25-1.66,3.39a.69.69,0,0,0-.46.43c-1.07,2.18-2.09,4.38-3.09,6.59.08-.59.15-1.18.2-1.78a1.57,1.57,0,0,0-.34-.93l2-8.07c.14-.59-.47-1.62-1-1.65.12-1.08.24-2.15.34-3.23.07-.74-1-2-1.48-.91a155.47,155.47,0,0,0-5.9,17.48q-.11-.31-.24-.63a1.14,1.14,0,0,0-.87-.72c-.08-.53-.16-1.06-.23-1.6a1.25,1.25,0,0,0-.16-.47c0-.73.1-1.45.13-2.18,0-1-1.36-2.06-1.55-.65-.29,2.13-.53,4.26-.75,6.39a4.85,4.85,0,0,0-1.06-.84,4.18,4.18,0,0,0-.7-.31c.22-1,.43-2,.65-2.92A7.76,7.76,0,0,0,94,91.8a3,3,0,0,0-3.66-.27c0-.28,0-.55,0-.82,0-.85-.73-1.45-1.19-1.22-.17-1.26-.36-2.51-.58-3.75-.16-.91-1.23-1.52-1.52-.34q-.37,1.5-.72,3c0-.1,0-.21-.05-.31-.11-.79-.75-1.13-1.17-.87L84,83.31c-.13-.5-.68-1-1.09-1l-.54-3.07A6.9,6.9,0,0,0,81,76.12L80.63,74c-.17-1-1.28-1.33-1.51-.41-.34-1.13-.62-2.28-.85-3.45s-.39-2.63-.58-3.95c-.09-.63-.41-.91-.74-.94-.28-.83-.58-1.67-.92-2.5a.69.69,0,0,0-.1-.17L76,62q1.92-11.37,2.84-22.91c.18-2.29-1.15-5.59-3.42-6.46s-4.07,1-4.34,3.22L70.93,37c-1.25.06-2.38,1-2.86,3.27s-.92,4.45-1.35,6.67a4.92,4.92,0,0,0-1.12,2.39c-.28,1.67-.54,3.35-.78,5-1.75-.67-3.6,0-4.12,3a111.94,111.94,0,0,0-.87,26.49c-.18,1.43-.36,2.86-.55,4.28-.26,2.12,0,4.88,1.51,6.64.11,1,.22,2,.32,3.08a6.6,6.6,0,0,0,.8,2.56,114.76,114.76,0,0,0,1.55,12.09c.71,3.7,4.49,6.52,6.59,4,0,2.27,0,4.54.21,6.82v.25h0c0,.52.07,1,.12,1.57A5.69,5.69,0,0,0,72,128.75c.84,5.53,1.76,11.05,2.7,16.57.32,1.94,1.6,4.67,3.79,5.11,2,.4,3.62-1.58,3.83-3.43.07-.66.13-1.31.2-2,1.61,1.24,3.58,1.38,4.67-1.32.5-1.25,1-2.52,1.36-3.8a4.62,4.62,0,0,0,1.38,1.22c2.38,1.35,4.46-.63,4.84-3,.24-1.47.47-2.94.68-4.41.17-1.08.33-2.16.5-3.24a2.63,2.63,0,0,0,3.49.45c.62,1.71,1.79,3.28,3.44,3.61,2.21.45,3.29-1.43,3.73-3.3,1.62-1.24,1.7-4.19,1.51-5.94l-.06-.57a2.85,2.85,0,0,0,1.55-1.18c1.54.61,3.14-.08,3.95-3.1.11-.41.21-.83.32-1.25s.29-1.08.45-1.65a3.79,3.79,0,0,0,1.29-1.63,37.88,37.88,0,0,0,3-10.81,3.45,3.45,0,0,0,.44-.42c1.94-2.18,1.14-5.9,0-8.19l0,0a62.72,62.72,0,0,0,2.84-10.36C122,85.3,120.82,83.58,120.36,84.88Z"/><path class="cls-3" d="M118.73,80a1.23,1.23,0,0,0-.91.25,1.65,1.65,0,0,0-2.56.54,1.09,1.09,0,0,0-1.09,0c-.9-1.77-2.47-2.93-3.68-.5l-.29.59c-.81-.61-1.73-.52-2.42,1l-.43,1a.83.83,0,0,0-.22,0c-.55,0-1.08.4-1.5,1.38l-.13.31c-.79-.64-1.7-.58-2.5,1-.11.24-.22.47-.34.71a1.76,1.76,0,0,0-2.38,1.1,1.82,1.82,0,0,0-.48-.28c-.74-.9-1.81-1.54-2.66-1a1.68,1.68,0,0,0-1.35-.19c-.14-.93-.29-1.87-.47-2.81s-1.23-1.52-1.52-.33c-.25,1-.5,2-.76,2.93a1.89,1.89,0,0,0-.78-.14,1.5,1.5,0,0,0-.44-.49c-.62-1-1.5-1.85-2.31-1.78a24.93,24.93,0,0,0-.19-3.32c-.08-.6-.63-1.08-1-1A2.72,2.72,0,0,0,88,78.9v-.06c0-1.27-1.46-1.91-1.58-.36s-.26,3-.44,4.57c-.21-.64-.85-.91-1.23-.61-.16-1.07-.33-2.13-.51-3.2a1,1,0,0,0-.68-.92,1.42,1.42,0,0,0,0-.2c-.14-.68-.55-1-.92-.93-.18-.77-.37-1.54-.58-2.3a.74.74,0,0,0-1.18-.51c-.31-1.5-.62-3-1-4.5-.18-.79-.69-1-1.08-.88l-.06-.64c-.12-1.2-1.49-1.36-1.55,0-.09,1.55-.12,3.09-.12,4.64-.45-.21-1,0-.93.84,0,.43,0,.86,0,1.29a1.19,1.19,0,0,0-.12.56,166,166,0,0,0,1.45,20.9,1.08,1.08,0,0,0,.53.85A5.17,5.17,0,0,0,79,98.83a3.31,3.31,0,0,0,.75.82c-.17,1.52.33,3.5,1.71,4.28a2,2,0,0,0,.71.25c-.35.85-.69,1.7-1,2.56-.74,2,1.79,8.23,3.74,5,.13-.21.23-.42.35-.63h0c.66.15,1.36-.14,2-1.16-.18.62-.37,1.24-.56,1.86-.73,2.45,2.82,7.32,4.35,3.58q.7-1.73,1.38-3.45a2.34,2.34,0,0,0,.79-1l.87-1.88a1.1,1.1,0,0,0,1.27-.55c.92,2,2.76,3.44,3.75.89l0-.08c.8.71,2.07,1.19,2.77,0l.36-.63h0v0l.2-.35a1.93,1.93,0,0,0,.87-.78l.57-.85a1.48,1.48,0,0,0,1.49-.32c.57,1.19,1.44,1.86,2.6.88a41.63,41.63,0,0,0,4.44-4.36c.9.85,2,1,3-.68.63-1.15,1.23-2.3,1.81-3.47a1.33,1.33,0,0,0,1.13-.64,2.31,2.31,0,0,0,1.27-1.33,38.83,38.83,0,0,0,3-8.63,4.32,4.32,0,0,0-.34-2.43l0-.15c.12-.41.24-.82.34-1.24C123.16,82.14,120.53,77.85,118.73,80Z"/></g><path class="cls-7" d="M115.39,112.12c1.56-.42,5.38-1.69,7.71-4.79,2.1-2.8,2.22-2.93,3.11-3.3a11.33,11.33,0,0,0,1.76-.92c2.86-1.78,3-2.64,3.19-3.83l.77.12c-.23,1.5-.59,2.54-3.55,4.38a12,12,0,0,1-1.87,1c-.69.29-.73.3-2.78,3a12.63,12.63,0,0,1-3.91,3.36,11.4,11.4,0,0,0,2.28-.85c2.6-1.44,5-1.45,7,0,.53.38,1.1.86,1.7,1.36,2.14,1.82,4.56,3.87,6.48,2.51a8.2,8.2,0,0,0,1.21-1c2-2,2.31-4.59,1.07-8-1.48-4.05-3.34-5.92-6.48-8.31-.44-.34-.92-.69-1.42-1.06-4-3-6-4.39-7.66-4.45a108.17,108.17,0,0,1-11.78,20.21.51.51,0,0,0,.17.33c.54.53,2.2.36,2.9.29Zm19.94-50.53a5.26,5.26,0,0,0-.75-4,4,4,0,0,0-2.28-1.44l-.22.45h-.17a1.75,1.75,0,0,0-.13.82c-.55,3.49-1.05,6.55-1.53,9.31A5.58,5.58,0,0,0,135.33,61.59Zm-.57-5a23.59,23.59,0,0,1-.4-4.56l-1.7,3.38A5,5,0,0,1,134.76,56.58ZM69,53.82a5.28,5.28,0,0,0,3,2.53q.72-4.31,1.62-8.9a1,1,0,0,1-.16-1c0-.28.06-.77.12-1.55l-.06,0c-2-1.13-3.56,1.29-3.63,1.39C68.39,49.38,68.08,51.94,69,53.82Zm-3,47.46a7.71,7.71,0,0,0,3,0c-.19-3.09-.28-6.42-.26-10l-.06.38s-2.87-.42-4.41.8a2.58,2.58,0,0,0-1,1.92C63.07,98.17,64.15,101,66,101.28Zm2,14.08c-.38,3.9,1.45,16.7,3.38,21.78.88,2.28,1.42,4.07,1.86,5.5A10.07,10.07,0,0,0,74.62,146a8.42,8.42,0,0,1,1.59,3.5c1.74-1.15,7.12-4.86,16.07-11.08l.65-.45a158.16,158.16,0,0,0,14-11.15c1.72-1.67,3.85-6,5.57-9.44A47.24,47.24,0,0,1,114.8,113v0c-1,.07-2.3.08-3-.56a.84.84,0,0,1-.15-.18c-7.69,10-18.45,19.51-33.31,23.47l-.24.07-.16-.2c-.12-.14-7.29-9.32-8.88-33.49l-.29,0a7.73,7.73,0,0,1-1.61.06C67.41,103.84,68.4,111.72,68,115.36Zm27.33,22.58a1,1,0,0,0-.43.75c0,.3.27.67.6.95h0l.3.22a1.14,1.14,0,0,0,.7-1.11,1,1,0,0,0-.42-.94,1.14,1.14,0,0,0-.41,0A.79.79,0,0,0,95.37,137.94ZM67.26,115.27c.33-3.46-.62-11.21-.84-12.93-3.62,1.26-24.56,9.2-22.86,23a4.15,4.15,0,0,0-.77.2C41,111.92,60,103.87,65.34,101.89c-2-.77-3.07-3.7-2.77-7.58a3.33,3.33,0,0,1,1.26-2.48c1.69-1.35,4.5-1,5-1A220.68,220.68,0,0,1,71.9,57.14a6,6,0,0,1-3.59-3,2.71,2.71,0,0,1-.13-.3c-.05-.47-.11-.94-.19-1.42a2.6,2.6,0,0,0-.28-.84,12.67,12.67,0,0,1,1.51-5.75c.66-1.06,2.31-2.67,4.27-1.91.26-.91.46-1.69.63-2.37.8-3.13,1.1-4.35,4.72-6.49-.29-.84-.86-3.06.67-4.39a17.49,17.49,0,0,1,1.61-1.2,4.77,4.77,0,0,0,2-2.12c.74-1.72.84-3.85.32-6.71a5.45,5.45,0,0,0-.69-2.27.24.24,0,0,0,.29-.07l-.59-.52a.52.52,0,0,1,.55-.15c.3.08.63.38,1,1.82a.76.76,0,0,0,.23,1.08c.55,3,.44,5.27-.37,7.14a5.51,5.51,0,0,1-2.34,2.45A16.07,16.07,0,0,0,80,31.31c-1.44,1.24-.36,3.78-.35,3.81l.14.32-.3.17c-3.6,2.09-3.84,3-4.64,6.16-.11.47-.23,1-.38,1.51h0c-.28,3.2-.29,3.59-.3,3.61h0a1.07,1.07,0,0,0,.14.2l.12.15,0,.19c-12.36,62.39,2.31,85.11,4,87.43,30.5-8.28,43.56-40.39,47.86-51l.58-3.08c1.21-6.37,2.47-12.95,4.12-23.49A1.85,1.85,0,0,1,131.4,56a.83.83,0,0,1,.16-.12l0,0,3.69-7.38-.1,1.88c0,.05-.23,4.84.61,7.06.16.42.39.51.54.54,1.06.21,3.18-1.54,4.34-2.77a5.33,5.33,0,0,0,.68-1.08,5.83,5.83,0,0,1,4.7-3.62,9,9,0,0,0,3.7-1.2.86.86,0,0,0,.63.5,9.31,9.31,0,0,1-4.21,1.48,5.09,5.09,0,0,0-4.12,3.21,6.73,6.73,0,0,1-.8,1.25c-.34.35-3.25,3.37-5.07,3a.83.83,0,0,1-.21-.06,7.28,7.28,0,0,1,.14,3.09,6.37,6.37,0,0,1-5.54,5.74l-.46.06c-.9,5.23-1.69,9.39-2.47,13.46l-.59,3.17c-.68,1.67-1.58,3.87-2.72,6.42,1.79.22,3.85,1.67,7.78,4.57,4.16,3.06,6.42,4.88,8.18,9.73,1.37,3.77.92,6.72-1.38,9a8.25,8.25,0,0,1-1.18,1,3,3,0,0,1-1.34.56,5.37,5.37,0,0,1-3.65-1.17,61.11,61.11,0,0,1,6.52,9.36,62.7,62.7,0,0,1,4.81,14.89,21.68,21.68,0,0,0,.73,3.17,3.35,3.35,0,0,0-.79.12,22.67,22.67,0,0,1-.72-3.18,62.8,62.8,0,0,0-4.74-14.66c-2.33-4.66-8.74-12-8.81-12l0,0c-.4-.34-.78-.64-1.13-.89-1.75-1.25-3.82-1.21-6.16.09-1.61.89-6.08,1.84-6.67,2a28.51,28.51,0,0,0-2.59,4.71c-1.74,3.52-3.91,7.9-5.73,9.66a147,147,0,0,1-12,9.71,2,2,0,0,1,.85,0,1.67,1.67,0,0,1,1,1.69,1.89,1.89,0,0,1-1.44,1.93l-.16,0-.14-.07-.16-.1a16.31,16.31,0,0,1-1.57,5.62,6.62,6.62,0,0,1-.81,1.09c-.29.32-.29.32,0,2l.12.8c.11.74.23,1.49.35,2.22a37.24,37.24,0,0,1,.76,6.89A11.91,11.91,0,0,1,93,162.32c-.73,1.47-1.63,3.29-1.41,4l-.74.25c-.34-1,.52-2.72,1.44-4.56a11.59,11.59,0,0,0,1.21-2.92,37.31,37.31,0,0,0-.75-6.69c-.12-.74-.24-1.49-.35-2.23l-.12-.8c-.29-1.86-.32-2,.22-2.61a6.24,6.24,0,0,0,.73-1c1-1.56,1.4-4.71,1.52-5.81a1.72,1.72,0,0,1-.57-1.39,1.93,1.93,0,0,1,.26-.73l-1,.73-.65.45c-12.45,8.65-15.65,10.82-16.54,11.38L75.83,152c-.8,3.43-2.46,10.57-2.48,12.72h-.78c0-2.23,1.62-9.16,2.49-12.89.22-.91.4-1.7.44-1.91a8.83,8.83,0,0,0-1.43-3.35c-.6-.59-.95-1.74-1.53-3.64-.44-1.42-1-3.19-1.86-5.45a42.38,42.38,0,0,1-1.55-5.62C67.85,125.84,67,118.22,67.26,115.27Z"/><path class="cls-12" d="M66.67,133.47c-.39-.26-1-.77-.92-1.19a1.1,1.1,0,0,1,.44-.74.89.89,0,0,1,.35-.14,1.15,1.15,0,0,1,.41,0,1,1,0,0,1,.42.93A1.14,1.14,0,0,1,66.67,133.47Z"/><path class="cls-7" d="M65.75,132.28c0,.42.53.93.92,1.19a1.14,1.14,0,0,0,.7-1.12,1,1,0,0,0-.42-.93,1.15,1.15,0,0,0-.41,0,.89.89,0,0,0-.35.14A1.1,1.1,0,0,0,65.75,132.28Zm.1,1.57a2,2,0,0,1-.87-1.68,1.81,1.81,0,0,1,.77-1.29,1.72,1.72,0,0,1,1.39-.22,1.55,1.55,0,0,1,1,1.36c0,.1,0,.21,0,.32a1.91,1.91,0,0,1-1.44,1.94l-.16,0,0,0a41.16,41.16,0,0,1-3.18,5.89c-.28.41-.58.79-.86,1.17-1.3,1.73-2.52,3.35-2.78,5.8-.1,1-.13,2.44-.16,3.94a48.4,48.4,0,0,1-.35,6l-.31-.56-.34-.61c.14-1.46.18-3.22.21-4.84s.07-3,.18-4c.27-2.67,1.56-4.38,2.92-6.19.28-.38.57-.75.85-1.15A42.43,42.43,0,0,0,65.85,133.85Z"/><path class="cls-4" d="M115.28,112.13h.11c1.56-.42,5.38-1.69,7.71-4.79,2.1-2.8,2.22-2.93,3.11-3.3a11.33,11.33,0,0,0,1.76-.92c2.86-1.78,3-2.64,3.19-3.83l.77.12c-.23,1.5-.59,2.54-3.55,4.38a12,12,0,0,1-1.87,1c-.69.29-.73.3-2.78,3a12.63,12.63,0,0,1-3.91,3.36,11.4,11.4,0,0,0,2.28-.85c2.6-1.44,5-1.45,7,0,.53.38,1.1.86,1.7,1.36,2.14,1.82,4.56,3.87,6.48,2.51a8.2,8.2,0,0,0,1.21-1c2-2,2.31-4.59,1.07-8-1.48-4.05-3.34-5.92-6.48-8.31-.44-.34-.92-.69-1.42-1.06-4-3-6-4.39-7.66-4.45a108.17,108.17,0,0,1-11.78,20.21.51.51,0,0,0,.17.33C112.92,112.37,114.58,112.2,115.28,112.13Z"/><path class="cls-4" d="M138.55,123.87c-2.33-4.66-8.74-12-8.81-12l0,0c-.4-.34-.78-.64-1.13-.89-1.75-1.25-3.82-1.21-6.16.09-1.61.89-6.08,1.84-6.67,2a28.51,28.51,0,0,0-2.59,4.71c-1.74,3.52-3.91,7.9-5.73,9.66a147,147,0,0,1-12,9.71,2,2,0,0,1,.85,0,1.67,1.67,0,0,1,1,1.69,1.89,1.89,0,0,1-1.44,1.93l-.16,0-.14-.07-.16-.1a16.31,16.31,0,0,1-1.57,5.62,6.62,6.62,0,0,1-.81,1.09c-.29.32-.29.32,0,2l.12.8c.11.74.23,1.49.35,2.22a37.24,37.24,0,0,1,.76,6.89A11.91,11.91,0,0,1,93,162.32c-.73,1.47-1.63,3.29-1.41,4l-.74.25c-.34-1,.52-2.72,1.44-4.56a11.59,11.59,0,0,0,1.21-2.92,37.31,37.31,0,0,0-.75-6.69c-.12-.74-.24-1.49-.35-2.23l-.12-.8c-.29-1.86-.32-2,.22-2.61a6.24,6.24,0,0,0,.73-1c1-1.56,1.4-4.71,1.52-5.81a1.72,1.72,0,0,1-.57-1.39,1.93,1.93,0,0,1,.26-.73l-1,.73-.65.45c-12.45,8.65-15.65,10.82-16.54,11.38L75.83,152c-.8,3.43-2.46,10.57-2.48,12.72h-.78c0-2.23,1.62-9.16,2.49-12.89.22-.91.4-1.7.44-1.91a8.83,8.83,0,0,0-1.43-3.35c-.6-.59-.95-1.74-1.53-3.64-.44-1.42-1-3.19-1.86-5.45a42.38,42.38,0,0,1-1.55-5.62c-1.28-6-2.16-13.58-1.87-16.53.33-3.46-.62-11.21-.84-12.93-3.62,1.26-24.56,9.2-22.86,23a3.2,3.2,0,0,1,3.16,1.6c2.94,4.51,3.31,9.27,4.64,14.34s4.59,10,7.18,14.68c.14-1.46.18-3.22.21-4.84s.07-3,.18-4c.27-2.67,1.56-4.38,2.92-6.19.28-.38.57-.75.85-1.15a42.43,42.43,0,0,0,3.15-5.89,2,2,0,0,1-.87-1.68,1.81,1.81,0,0,1,.77-1.29,1.72,1.72,0,0,1,1.39-.22,1.55,1.55,0,0,1,1,1.36c0,.1,0,.21,0,.32a1.91,1.91,0,0,1-1.44,1.94l-.16,0,0,0a41.16,41.16,0,0,1-3.18,5.89c-.28.41-.58.79-.86,1.17-1.3,1.73-2.52,3.35-2.78,5.8-.1,1-.13,2.44-.16,3.94a48.4,48.4,0,0,1-.35,6c2.46,4.5,5,8.38,9.81,10.73s10.31,2.87,15.59,2.83c2.13,0,4.27-.06,6.43-.18,9.56-.51,19.22-2.3,27.09-7.93,4.41-3.15,8.38-6.87,12.85-9.93,3.54-2.43,9.08-4.31,10.67-8.6a3.54,3.54,0,0,1,2.38-2.31,23,23,0,0,1-.72-3.18A62.8,62.8,0,0,0,138.55,123.87Z"/><g class="cls-16"><path class="cls-17" d="M75.42,80.81c-1.15,0-2.3,0-3.46.06l-.12-.09a6.06,6.06,0,0,0-4-.76,5.21,5.21,0,0,0-5.56.68c-1.39-.06-2.78-.14-4.18-.24-5-.34-7.12,4.37-7.14,8.8a18.4,18.4,0,0,0,1,5.64,29.17,29.17,0,0,0-7.42,6.79A60.88,60.88,0,0,0,34.86,122c-1.3,4.54.86,11.4,5,13.87a6,6,0,0,0,2.2.81l.3.65c4.18,8.34,13,16.19,12.22,25.91-.35,4.33,2.38,11,7.08,12,5.2,1.1,6.83-5,7.14-8.8.69-8.37-2.09-17.16-5.91-24.49a98.65,98.65,0,0,0-5.57-9,7.25,7.25,0,0,0,.54-4.67c-.45-1.76-.9-3.52-1.33-5.28-.21-.86-1.2-3.25-1.05-4a10.66,10.66,0,0,0,.08-1.52c3.5-4.24,9.8-6.55,14.51-9.16a4,4,0,0,0,1.62-.67,7,7,0,0,0,1.93-2.14,14.92,14.92,0,0,0,9.82-7.65C86.39,91.93,83,80.61,75.42,80.81Z"/></g><path class="cls-4" d="M66,101.28a7.71,7.71,0,0,0,3,0c-.19-3.09-.28-6.42-.26-10l-.06.38s-2.87-.42-4.41.8a2.58,2.58,0,0,0-1,1.92C63.07,98.17,64.15,101,66,101.28Z"/><path class="cls-18" d="M69.09,102.08l-.29,0a7.73,7.73,0,0,1-1.61.06c.22,1.65,1.21,9.53.85,13.17-.38,3.9,1.45,16.7,3.38,21.78.88,2.28,1.42,4.07,1.86,5.5A10.07,10.07,0,0,0,74.62,146a8.42,8.42,0,0,1,1.59,3.5c1.74-1.15,7.12-4.86,16.07-11.08l.65-.45a158.16,158.16,0,0,0,14-11.15c1.72-1.67,3.85-6,5.57-9.44A47.24,47.24,0,0,1,114.8,113v0c-1,.07-2.3.08-3-.56a.84.84,0,0,1-.15-.18c-7.69,10-18.45,19.51-33.31,23.47l-.24.07-.16-.2C77.85,135.43,70.68,126.25,69.09,102.08Z"/><path class="cls-7" d="M58.88,156.54l.31.56a6.83,6.83,0,0,1-.53,1.92l-.71-.35a8.52,8.52,0,0,0,.59-2.74Z"/><path class="cls-7" d="M43.69,126.13l-.78.15c0-.26-.09-.52-.12-.77a4.15,4.15,0,0,1,.77-.2C43.59,125.59,43.64,125.86,43.69,126.13Z"/></g></svg>